<svg xmlns="http://www.w3.org/2000/svg" width="330" height="208" viewBox="0 0 330 208" font-family="Helvetica, Arial, sans-serif" font-size="11">
<rect width="330" height="208" fill="white"/>
<text x="103.0" y="13" text-anchor="middle" font-weight="bold">(a) Test worlds</text>
<line x1="40" y1="122.0" x2="166" y2="122.0" stroke="#e5e5e5" stroke-width="0.7"/>
<text x="35" y="126.0" text-anchor="end">0</text>
<line x1="40" y1="101.60000000000001" x2="166" y2="101.60000000000001" stroke="#e5e5e5" stroke-width="0.7"/>
<text x="35" y="105.60000000000001" text-anchor="end">20</text>
<line x1="40" y1="81.19999999999999" x2="166" y2="81.19999999999999" stroke="#e5e5e5" stroke-width="0.7"/>
<text x="35" y="85.19999999999999" text-anchor="end">40</text>
<line x1="40" y1="60.800000000000004" x2="166" y2="60.800000000000004" stroke="#e5e5e5" stroke-width="0.7"/>
<text x="35" y="64.80000000000001" text-anchor="end">60</text>
<line x1="40" y1="40.39999999999999" x2="166" y2="40.39999999999999" stroke="#e5e5e5" stroke-width="0.7"/>
<text x="35" y="44.39999999999999" text-anchor="end">80</text>
<line x1="40" y1="20.0" x2="166" y2="20.0" stroke="#e5e5e5" stroke-width="0.7"/>
<text x="35" y="24.0" text-anchor="end">100</text>
<text x="40.0" y="135" text-anchor="middle">1</text>
<text x="82.0" y="135" text-anchor="middle">2</text>
<text x="124.0" y="135" text-anchor="middle">3</text>
<text x="166.0" y="135" text-anchor="middle">4</text>
<rect x="40" y="20" width="126" height="102" fill="none" stroke="#444" stroke-width="0.8"/>
<text x="103.0" y="149" text-anchor="middle">rollout steps k</text>
<text transform="translate(10,71.0) rotate(-90)" text-anchor="middle">exact state match (%)</text>
<polyline points="40.0,29.3 82.0,35.7 124.0,38.1 166.0,42.6" fill="none" stroke="#222222" stroke-width="1.6"/>
<circle cx="40.0" cy="29.3" r="2.3" fill="#222222"/>
<circle cx="82.0" cy="35.7" r="2.3" fill="#222222"/>
<circle cx="124.0" cy="38.1" r="2.3" fill="#222222"/>
<circle cx="166.0" cy="42.6" r="2.3" fill="#222222"/>
<polyline points="40.0,81.8 82.0,99.2 124.0,109.6 166.0,112.7" fill="none" stroke="#1f6fb4" stroke-width="1.6" stroke-dasharray="5,3"/>
<circle cx="40.0" cy="81.8" r="2.3" fill="#1f6fb4"/>
<circle cx="82.0" cy="99.2" r="2.3" fill="#1f6fb4"/>
<circle cx="124.0" cy="109.6" r="2.3" fill="#1f6fb4"/>
<circle cx="166.0" cy="112.7" r="2.3" fill="#1f6fb4"/>
<polyline points="40.0,20.0 82.0,20.4 124.0,20.8 166.0,21.5" fill="none" stroke="#1f6fb4" stroke-width="1.6"/>
<circle cx="40.0" cy="20.0" r="2.3" fill="#1f6fb4"/>
<circle cx="82.0" cy="20.4" r="2.3" fill="#1f6fb4"/>
<circle cx="124.0" cy="20.8" r="2.3" fill="#1f6fb4"/>
<circle cx="166.0" cy="21.5" r="2.3" fill="#1f6fb4"/>
<polyline points="40.0,81.2 82.0,103.9 124.0,112.2 166.0,115.6" fill="none" stroke="#c8372d" stroke-width="1.6" stroke-dasharray="5,3"/>
<circle cx="40.0" cy="81.2" r="2.3" fill="#c8372d"/>
<circle cx="82.0" cy="103.9" r="2.3" fill="#c8372d"/>
<circle cx="124.0" cy="112.2" r="2.3" fill="#c8372d"/>
<circle cx="166.0" cy="115.6" r="2.3" fill="#c8372d"/>
<polyline points="40.0,20.3 82.0,21.0 124.0,22.0 166.0,23.3" fill="none" stroke="#c8372d" stroke-width="1.6"/>
<circle cx="40.0" cy="20.3" r="2.3" fill="#c8372d"/>
<circle cx="82.0" cy="21.0" r="2.3" fill="#c8372d"/>
<circle cx="124.0" cy="22.0" r="2.3" fill="#c8372d"/>
<circle cx="166.0" cy="23.3" r="2.3" fill="#c8372d"/>
<polyline points="40.0,86.3 82.0,98.7 124.0,105.0 166.0,106.1" fill="none" stroke="#8a8a8a" stroke-width="1.6" stroke-dasharray="1.5,2.5"/>
<text x="255.0" y="13" text-anchor="middle" font-weight="bold">(b) New structure</text>
<line x1="192" y1="122.0" x2="318" y2="122.0" stroke="#e5e5e5" stroke-width="0.7"/>
<line x1="192" y1="101.60000000000001" x2="318" y2="101.60000000000001" stroke="#e5e5e5" stroke-width="0.7"/>
<line x1="192" y1="81.19999999999999" x2="318" y2="81.19999999999999" stroke="#e5e5e5" stroke-width="0.7"/>
<line x1="192" y1="60.800000000000004" x2="318" y2="60.800000000000004" stroke="#e5e5e5" stroke-width="0.7"/>
<line x1="192" y1="40.39999999999999" x2="318" y2="40.39999999999999" stroke="#e5e5e5" stroke-width="0.7"/>
<line x1="192" y1="20.0" x2="318" y2="20.0" stroke="#e5e5e5" stroke-width="0.7"/>
<text x="192.0" y="135" text-anchor="middle">1</text>
<text x="234.0" y="135" text-anchor="middle">2</text>
<text x="276.0" y="135" text-anchor="middle">3</text>
<text x="318.0" y="135" text-anchor="middle">4</text>
<rect x="192" y="20" width="126" height="102" fill="none" stroke="#444" stroke-width="0.8"/>
<text x="255.0" y="149" text-anchor="middle">rollout steps k</text>
<polyline points="192.0,25.4 234.0,28.9 276.0,32.8 318.0,34.8" fill="none" stroke="#222222" stroke-width="1.6"/>
<circle cx="192.0" cy="25.4" r="2.3" fill="#222222"/>
<circle cx="234.0" cy="28.9" r="2.3" fill="#222222"/>
<circle cx="276.0" cy="32.8" r="2.3" fill="#222222"/>
<circle cx="318.0" cy="34.8" r="2.3" fill="#222222"/>
<polyline points="192.0,30.5 234.0,40.4 276.0,43.2 318.0,49.1" fill="none" stroke="#1f6fb4" stroke-width="1.6"/>
<circle cx="192.0" cy="30.5" r="2.3" fill="#1f6fb4"/>
<circle cx="234.0" cy="40.4" r="2.3" fill="#1f6fb4"/>
<circle cx="276.0" cy="43.2" r="2.3" fill="#1f6fb4"/>
<circle cx="318.0" cy="49.1" r="2.3" fill="#1f6fb4"/>
<polyline points="192.0,28.7 234.0,41.7 276.0,47.3 318.0,54.2" fill="none" stroke="#c8372d" stroke-width="1.6"/>
<circle cx="192.0" cy="28.7" r="2.3" fill="#c8372d"/>
<circle cx="234.0" cy="41.7" r="2.3" fill="#c8372d"/>
<circle cx="276.0" cy="47.3" r="2.3" fill="#c8372d"/>
<circle cx="318.0" cy="54.2" r="2.3" fill="#c8372d"/>
<polyline points="192.0,80.9 234.0,91.4 276.0,100.1 318.0,103.6" fill="none" stroke="#8a8a8a" stroke-width="1.6" stroke-dasharray="1.5,2.5"/>
<line x1="8" y1="166" x2="28" y2="166" stroke="#222222" stroke-width="1.6"/>
<text x="33" y="170">JEV (A)</text>
<line x1="174" y1="166" x2="194" y2="166" stroke="#8a8a8a" stroke-width="1.6" stroke-dasharray="1.5,2.5"/>
<text x="199" y="170">persistence</text>
<line x1="8" y1="180" x2="28" y2="180" stroke="#1f6fb4" stroke-width="1.6"/>
<text x="33" y="184">LLM+LoRA, decision (B)</text>
<line x1="174" y1="180" x2="194" y2="180" stroke="#1f6fb4" stroke-width="1.6" stroke-dasharray="5,3"/>
<text x="199" y="184">LLM, decision (B0)</text>
<line x1="8" y1="194" x2="28" y2="194" stroke="#c8372d" stroke-width="1.6"/>
<text x="33" y="198">LLM+LoRA, generative (D)</text>
<line x1="174" y1="194" x2="194" y2="194" stroke="#c8372d" stroke-width="1.6" stroke-dasharray="5,3"/>
<text x="199" y="198">LLM, generative (D0)</text>
</svg>
