<svg xmlns="http://www.w3.org/2000/svg" width="330" height="225" viewBox="0 0 330 225" font-family="Helvetica, Arial, sans-serif" font-size="11">
<rect width="330" height="225" fill="white"/>
<text x="103.0" y="13" text-anchor="middle" font-weight="bold">(a) Test worlds</text>
<line x1="40" y1="136.0" x2="166" y2="136.0" stroke="#e5e5e5" stroke-width="0.7"/>
<text x="35" y="140.0" text-anchor="end">0</text>
<line x1="40" y1="112.80000000000001" x2="166" y2="112.80000000000001" stroke="#e5e5e5" stroke-width="0.7"/>
<text x="35" y="116.80000000000001" text-anchor="end">20</text>
<line x1="40" y1="89.6" x2="166" y2="89.6" stroke="#e5e5e5" stroke-width="0.7"/>
<text x="35" y="93.6" text-anchor="end">40</text>
<line x1="40" y1="66.4" x2="166" y2="66.4" stroke="#e5e5e5" stroke-width="0.7"/>
<text x="35" y="70.4" text-anchor="end">60</text>
<line x1="40" y1="43.199999999999996" x2="166" y2="43.199999999999996" stroke="#e5e5e5" stroke-width="0.7"/>
<text x="35" y="47.199999999999996" text-anchor="end">80</text>
<line x1="40" y1="20.0" x2="166" y2="20.0" stroke="#e5e5e5" stroke-width="0.7"/>
<text x="35" y="24.0" text-anchor="end">100</text>
<text x="40.0" y="149" text-anchor="middle">1</text>
<text x="82.0" y="149" text-anchor="middle">2</text>
<text x="124.0" y="149" text-anchor="middle">3</text>
<text x="166.0" y="149" text-anchor="middle">4</text>
<rect x="40" y="20" width="126" height="116" fill="none" stroke="#444" stroke-width="0.8"/>
<text x="103.0" y="163" text-anchor="middle">rollout steps k</text>
<text transform="translate(10,78.0) rotate(-90)" text-anchor="middle">exact state match (%)</text>
<polyline points="40.0,30.6 82.0,37.8 124.0,40.6 166.0,45.7" fill="none" stroke="#222222" stroke-width="1.6"/>
<circle cx="40.0" cy="30.6" r="2.3" fill="#222222"/>
<circle cx="82.0" cy="37.8" r="2.3" fill="#222222"/>
<circle cx="124.0" cy="40.6" r="2.3" fill="#222222"/>
<circle cx="166.0" cy="45.7" r="2.3" fill="#222222"/>
<polyline points="40.0,90.3 82.0,110.0 124.0,121.9 166.0,125.4" fill="none" stroke="#1f6fb4" stroke-width="1.6" stroke-dasharray="5,3"/>
<circle cx="40.0" cy="90.3" r="2.3" fill="#1f6fb4"/>
<circle cx="82.0" cy="110.0" r="2.3" fill="#1f6fb4"/>
<circle cx="124.0" cy="121.9" r="2.3" fill="#1f6fb4"/>
<circle cx="166.0" cy="125.4" r="2.3" fill="#1f6fb4"/>
<polyline points="40.0,20.0 82.0,20.4 124.0,20.9 166.0,21.7" fill="none" stroke="#1f6fb4" stroke-width="1.6"/>
<circle cx="40.0" cy="20.0" r="2.3" fill="#1f6fb4"/>
<circle cx="82.0" cy="20.4" r="2.3" fill="#1f6fb4"/>
<circle cx="124.0" cy="20.9" r="2.3" fill="#1f6fb4"/>
<circle cx="166.0" cy="21.7" r="2.3" fill="#1f6fb4"/>
<polyline points="40.0,89.6 82.0,115.4 124.0,124.8 166.0,128.8" fill="none" stroke="#c8372d" stroke-width="1.6" stroke-dasharray="5,3"/>
<circle cx="40.0" cy="89.6" r="2.3" fill="#c8372d"/>
<circle cx="82.0" cy="115.4" r="2.3" fill="#c8372d"/>
<circle cx="124.0" cy="124.8" r="2.3" fill="#c8372d"/>
<circle cx="166.0" cy="128.8" r="2.3" fill="#c8372d"/>
<polyline points="40.0,20.3 82.0,21.2 124.0,22.3 166.0,23.8" fill="none" stroke="#c8372d" stroke-width="1.6"/>
<circle cx="40.0" cy="20.3" r="2.3" fill="#c8372d"/>
<circle cx="82.0" cy="21.2" r="2.3" fill="#c8372d"/>
<circle cx="124.0" cy="22.3" r="2.3" fill="#c8372d"/>
<circle cx="166.0" cy="23.8" r="2.3" fill="#c8372d"/>
<polyline points="40.0,95.4 82.0,109.5 124.0,116.7 166.0,117.9" fill="none" stroke="#8a8a8a" stroke-width="1.6" stroke-dasharray="1.5,2.5"/>
<text x="255.0" y="13" text-anchor="middle" font-weight="bold">(b) New structure</text>
<line x1="192" y1="136.0" x2="318" y2="136.0" stroke="#e5e5e5" stroke-width="0.7"/>
<line x1="192" y1="112.80000000000001" x2="318" y2="112.80000000000001" stroke="#e5e5e5" stroke-width="0.7"/>
<line x1="192" y1="89.6" x2="318" y2="89.6" stroke="#e5e5e5" stroke-width="0.7"/>
<line x1="192" y1="66.4" x2="318" y2="66.4" stroke="#e5e5e5" stroke-width="0.7"/>
<line x1="192" y1="43.199999999999996" x2="318" y2="43.199999999999996" stroke="#e5e5e5" stroke-width="0.7"/>
<line x1="192" y1="20.0" x2="318" y2="20.0" stroke="#e5e5e5" stroke-width="0.7"/>
<text x="192.0" y="149" text-anchor="middle">1</text>
<text x="234.0" y="149" text-anchor="middle">2</text>
<text x="276.0" y="149" text-anchor="middle">3</text>
<text x="318.0" y="149" text-anchor="middle">4</text>
<rect x="192" y="20" width="126" height="116" fill="none" stroke="#444" stroke-width="0.8"/>
<text x="255.0" y="163" text-anchor="middle">rollout steps k</text>
<polyline points="192.0,26.1 234.0,30.2 276.0,34.5 318.0,36.8" fill="none" stroke="#222222" stroke-width="1.6"/>
<circle cx="192.0" cy="26.1" r="2.3" fill="#222222"/>
<circle cx="234.0" cy="30.2" r="2.3" fill="#222222"/>
<circle cx="276.0" cy="34.5" r="2.3" fill="#222222"/>
<circle cx="318.0" cy="36.8" r="2.3" fill="#222222"/>
<polyline points="192.0,31.9 234.0,43.2 276.0,46.4 318.0,53.1" fill="none" stroke="#1f6fb4" stroke-width="1.6"/>
<circle cx="192.0" cy="31.9" r="2.3" fill="#1f6fb4"/>
<circle cx="234.0" cy="43.2" r="2.3" fill="#1f6fb4"/>
<circle cx="276.0" cy="46.4" r="2.3" fill="#1f6fb4"/>
<circle cx="318.0" cy="53.1" r="2.3" fill="#1f6fb4"/>
<polyline points="192.0,29.9 234.0,44.7 276.0,51.0 318.0,58.9" fill="none" stroke="#c8372d" stroke-width="1.6"/>
<circle cx="192.0" cy="29.9" r="2.3" fill="#c8372d"/>
<circle cx="234.0" cy="44.7" r="2.3" fill="#c8372d"/>
<circle cx="276.0" cy="51.0" r="2.3" fill="#c8372d"/>
<circle cx="318.0" cy="58.9" r="2.3" fill="#c8372d"/>
<polyline points="192.0,89.3 234.0,101.2 276.0,111.1 318.0,115.1" fill="none" stroke="#8a8a8a" stroke-width="1.6" stroke-dasharray="1.5,2.5"/>
<line x1="8" y1="180" x2="28" y2="180" stroke="#222222" stroke-width="1.6"/>
<text x="33" y="184">JEV (A)</text>
<line x1="174" y1="180" x2="194" y2="180" stroke="#8a8a8a" stroke-width="1.6" stroke-dasharray="1.5,2.5"/>
<text x="199" y="184">persistence</text>
<line x1="8" y1="195" x2="28" y2="195" stroke="#1f6fb4" stroke-width="1.6"/>
<text x="33" y="199">Qwen+LoRA typed (B)</text>
<line x1="174" y1="195" x2="194" y2="195" stroke="#1f6fb4" stroke-width="1.6" stroke-dasharray="5,3"/>
<text x="199" y="199">Qwen typed (B0)</text>
<line x1="8" y1="210" x2="28" y2="210" stroke="#c8372d" stroke-width="1.6"/>
<text x="33" y="214">Qwen+LoRA gen. (D)</text>
<line x1="174" y1="210" x2="194" y2="210" stroke="#c8372d" stroke-width="1.6" stroke-dasharray="5,3"/>
<text x="199" y="214">Qwen gen. (D0)</text>
</svg>
